<svg width="808" height="395" viewBox="0 0 808 395" fill="none" xmlns="http://www.w3.org/2000/svg">
<g clip-path="url(#clip0_235_3864)">
<path fill-rule="evenodd" clip-rule="evenodd" d="M317.617 115.414C317.224 113.663 317.28 111.856 317.645 110.105C318.908 104.267 323.565 100.543 329.597 100.543H449.001C450.32 100.543 451.414 99.4584 451.414 98.152V55.789C451.414 54.4825 450.32 53.3984 449.001 53.3984H329.597C307.713 53.3984 287.121 66.8523 276.712 85.6432C274.187 90.202 272.279 95.0943 271.157 100.153C269.866 106.046 269.249 112.078 269.614 118.083C270.456 132.259 276.6 143.684 286.475 153.746C291.778 159.139 298.062 163.503 304.992 166.589L407.002 212.287C410.537 213.872 413.146 216.763 413.96 220.571C414.353 222.322 414.296 224.129 413.932 225.88C412.669 231.718 408.012 235.442 401.98 235.442H282.295C280.976 235.442 279.882 236.527 279.882 237.833V280.196C279.882 281.502 280.976 282.587 282.295 282.587H401.98C423.863 282.587 444.456 269.133 454.865 250.342C457.39 245.783 459.298 240.918 460.42 235.832C461.71 229.939 462.328 223.907 461.963 217.902C461.121 203.726 454.977 192.301 445.101 182.239C439.799 176.846 433.515 172.482 426.585 169.396L324.547 123.698C321.04 122.113 318.431 119.194 317.617 115.414Z" fill="#215994"/>
<path fill-rule="evenodd" clip-rule="evenodd" d="M758.342 0C757.023 0 755.929 1.08409 755.929 2.39056V292.955C755.929 294.261 757.023 295.345 758.342 295.345H800.902C802.221 295.345 803.315 294.261 803.315 292.955V2.39056C803.315 1.08409 802.221 0 800.902 0H758.342Z" fill="#215994"/>
<path fill-rule="evenodd" clip-rule="evenodd" d="M590.682 48.6732C530.951 55.9838 486.091 106.464 486.091 166.061C486.091 225.658 530.951 276.138 590.682 283.448C595.591 284.06 600.529 284.366 605.467 284.366C610.405 284.366 615.343 284.06 620.252 283.448C679.983 276.138 724.843 225.658 724.843 166.061C724.843 106.464 679.983 55.9838 620.252 48.6732C615.343 48.0616 610.405 47.7559 605.467 47.7559C600.529 47.7559 595.591 48.0616 590.682 48.6732ZM618.288 95.8173C652.544 101.877 677.486 131.592 677.486 166.061C677.486 200.891 652.039 230.745 617.363 236.443C613.435 237.083 609.451 237.416 605.467 237.416C601.483 237.416 597.499 237.083 593.571 236.443L592.589 236.277C558.362 230.189 533.448 200.474 533.448 166.061C533.448 131.231 558.895 101.377 593.571 95.6783C597.499 95.0389 601.483 94.7054 605.467 94.7054C609.451 94.7054 613.435 95.0389 617.363 95.6783L618.288 95.8173Z" fill="#215994"/>
<path d="M68.8488 338.375L68.2316 342.767C66.9129 342.545 63.3218 341.989 59.6746 341.989C51.3702 341.989 48.7049 343.601 48.7049 351.468V352.246H67.7546L67.5302 356.721H48.7329V390.995H43.6829V356.721H37.9316L38.2402 352.246H43.6829V351.468C43.6829 339.598 51.4543 337.458 59.1416 337.458C63.1816 337.43 67.2216 338.069 68.8488 338.375Z" fill="#2BAECC" stroke="#2BAECC"/>
<path d="M77.7135 373.566C77.7135 380.182 82.2866 386.742 93.4246 386.742C97.0719 386.742 103.217 385.436 109.361 382.35V352.023H114.411V390.995H110.595L109.753 386.52C106.19 388.299 98.2502 391.301 92.4988 391.301C80.1544 391.301 72.6074 384.991 72.6074 373.594V352.023H77.6574L77.7135 373.566Z" fill="#2BAECC" stroke="#2BAECC"/>
<path d="M123.248 337.986L128.298 337.681V390.968H123.248V337.986Z" fill="#2BAECC" stroke="#2BAECC"/>
<path d="M137.164 337.986L142.214 337.681V390.968H137.164V337.986Z" fill="#2BAECC" stroke="#2BAECC"/>
<path d="M202.365 383.49L204.16 387.66C200.205 389.745 195.07 391.274 188.842 391.274C175.095 391.274 166.313 383.351 166.313 371.482C166.313 359.613 175.095 351.69 188.842 351.69C194.678 351.69 200.261 353.219 203.683 354.859L201.663 359.168C198.858 358 194.369 356.249 188.842 356.249C177.564 356.249 171.42 362.948 171.42 371.482C171.42 380.044 177.564 386.715 188.842 386.715C194.06 386.715 199.896 384.714 202.365 383.49Z" fill="#2BAECC" stroke="#2BAECC"/>
<path d="M212.493 345.38C210.641 345.38 209.238 343.907 209.238 342.072C209.238 340.293 210.641 338.848 212.493 338.848C214.288 338.848 215.747 340.321 215.747 342.072C215.747 343.907 214.26 345.38 212.493 345.38ZM209.912 352.607L214.962 352.385V390.967H209.912V352.607Z" fill="#2BAECC" stroke="#2BAECC"/>
<path d="M223.911 352.775L227.811 352.552L228.512 356.555C231.935 354.554 238.22 351.69 245.542 351.69C251.209 351.69 253.005 352.385 253.005 352.385L252.304 357.083C252.304 357.083 249.105 356.249 244.701 356.249C238.472 356.249 233.591 358.334 228.989 360.947V390.968H223.939V352.775H223.911Z" fill="#2BAECC" stroke="#2BAECC"/>
<path d="M289.73 383.49L291.525 387.66C287.57 389.745 282.435 391.274 276.207 391.274C262.46 391.274 253.678 383.351 253.678 371.482C253.678 359.613 262.46 351.69 276.207 351.69C282.043 351.69 287.626 353.219 291.048 354.859L289.028 359.168C286.223 358 281.734 356.249 276.207 356.249C264.929 356.249 258.785 362.948 258.785 371.482C258.785 380.044 264.929 386.715 276.207 386.715C281.425 386.715 287.261 384.714 289.73 383.49Z" fill="#2BAECC" stroke="#2BAECC"/>
<path d="M297.277 337.986L302.327 337.681V390.968H297.277V337.986Z" fill="#2BAECC" stroke="#2BAECC"/>
<path d="M348.955 374.568L313.521 374.401C314.84 381.934 321.292 386.715 330.691 386.715C337.06 386.715 342.194 385.547 345.841 384.019L347.075 388.494C343.035 390.273 336.667 391.274 330.523 391.274C317.168 391.274 308.134 383.351 308.134 371.482C308.134 359.613 316.691 351.69 330.046 351.69C340.005 351.69 349.236 358.084 349.236 370.092C349.264 371.704 348.955 374.568 348.955 374.568ZM313.296 370.259L344.073 369.786C343.989 360.252 337.228 356.249 330.326 356.249C319.89 356.221 313.83 361.614 313.296 370.259Z" fill="#2BAECC" stroke="#2BAECC"/>
<path d="M371.427 371.482C371.427 359.613 380.742 351.69 394.601 351.69C408.461 351.69 417.691 359.613 417.691 371.482C417.691 383.351 408.433 391.274 394.601 391.274C380.77 391.274 371.427 383.324 371.427 371.482ZM376.477 371.482C376.477 375.791 378.273 386.576 394.573 386.576C410.902 386.576 412.669 375.791 412.669 371.482C412.669 367.173 410.874 356.305 394.573 356.305C378.273 356.305 376.477 367.173 376.477 371.482Z" fill="#2BAECC" stroke="#2BAECC"/>
<path d="M450.32 338.375L449.703 342.767C448.384 342.545 444.793 341.989 441.146 341.989C432.841 341.989 430.176 343.601 430.176 351.468V352.246H449.226L449.001 356.721H430.204V390.995H425.154V356.721H419.403L419.711 352.246H425.154V351.468C425.154 339.598 432.925 337.458 440.613 337.458C444.653 337.43 448.693 338.069 450.32 338.375Z" fill="#2BAECC" stroke="#2BAECC"/>
<path d="M503.934 353.525L502.84 357.75C499.81 356.971 493.834 356.054 490.018 356.054C483.874 356.054 476.58 356.443 476.58 361.919C476.58 366.784 483.958 367.395 490.018 368.007C498.716 369.008 507.497 370.092 507.497 379.098C507.497 388.66 500.343 391.273 487.914 391.273C482.331 391.273 475.71 389.8 471.754 388.799L472.848 384.324C476.411 385.241 483.117 386.548 487.914 386.548C498.239 386.548 502.363 385.019 502.363 379.626C502.363 374.762 496.078 373.928 488.139 372.927C479.834 371.926 471.361 370.536 471.418 362.531C471.502 353.969 479.582 351.662 489.598 351.662C494.844 351.69 500.371 352.607 503.934 353.525Z" fill="#2BAECC" stroke="#2BAECC"/>
<path d="M511.088 371.482C511.088 359.613 520.403 351.69 534.262 351.69C548.121 351.69 557.352 359.613 557.352 371.482C557.352 383.351 548.093 391.274 534.262 391.274C520.431 391.274 511.088 383.324 511.088 371.482ZM516.138 371.482C516.138 375.791 517.934 386.576 534.234 386.576C550.534 386.576 552.33 375.791 552.33 371.482C552.33 367.173 550.534 356.305 534.234 356.305C517.934 356.305 516.138 367.173 516.138 371.482Z" fill="#2BAECC" stroke="#2BAECC"/>
<path d="M563.159 337.986L568.209 337.681V390.968H563.159V337.986Z" fill="#2BAECC" stroke="#2BAECC"/>
<path d="M582.294 373.566C582.294 380.182 586.867 386.742 598.005 386.742C601.652 386.742 607.796 385.436 613.94 382.35V352.023H618.99V390.995H615.174L614.333 386.52C610.77 388.299 602.83 391.301 597.078 391.301C584.734 391.301 577.188 384.991 577.188 373.594V352.023H582.237L582.294 373.566Z" fill="#2BAECC" stroke="#2BAECC"/>
<path d="M629.847 352.219L631.783 343.518L634.673 343.129V352.219H653.021L652.797 356.694H634.701V377.264C634.701 385.825 639.919 386.743 646.512 386.743C651.029 386.743 654.901 385.964 654.901 385.964L655.294 390.495C655.294 390.495 651.17 391.274 645.979 391.274C637.815 391.274 629.595 389.05 629.595 377.264V356.694H623.759L624.068 352.219H629.847Z" fill="#2BAECC" stroke="#2BAECC"/>
<path d="M663.682 345.38C661.831 345.38 660.428 343.907 660.428 342.072C660.428 340.293 661.831 338.848 663.682 338.848C665.478 338.848 666.937 340.321 666.937 342.072C666.937 343.907 665.45 345.38 663.682 345.38ZM661.101 352.607L666.151 352.385V390.967H661.101V352.607Z" fill="#2BAECC" stroke="#2BAECC"/>
<path d="M672.071 371.482C672.071 359.613 681.385 351.69 695.245 351.69C709.076 351.69 718.334 359.613 718.334 371.482C718.334 383.351 709.076 391.274 695.245 391.274C681.385 391.274 672.071 383.324 672.071 371.482ZM677.121 371.482C677.121 375.791 678.916 386.576 695.217 386.576C711.545 386.576 713.312 375.791 713.312 371.482C713.312 367.173 711.517 356.305 695.217 356.305C678.916 356.305 677.121 367.173 677.121 371.482Z" fill="#2BAECC" stroke="#2BAECC"/>
<path d="M724.142 352.775L728.042 352.552L728.827 356.472C732.39 354.693 740.246 351.69 746.081 351.69C758.51 351.69 765.973 358 765.973 369.397V390.968H760.923L760.839 369.397C760.839 362.698 756.265 356.221 745.127 356.221C741.48 356.221 735.336 357.528 729.276 360.613V390.94H724.142V352.775Z" fill="#2BAECC" stroke="#2BAECC"/>
<path d="M804.437 353.525L803.343 357.75C800.313 356.971 794.337 356.054 790.521 356.054C784.377 356.054 777.083 356.443 777.083 361.919C777.083 366.784 784.461 367.395 790.521 368.007C799.219 369.008 808 370.092 808 379.098C808 388.66 800.846 391.273 788.417 391.273C782.834 391.273 776.213 389.8 772.257 388.799L773.351 384.324C776.915 385.241 783.62 386.548 788.417 386.548C798.742 386.548 802.866 385.019 802.866 379.626C802.866 374.762 796.581 373.928 788.642 372.927C780.337 371.926 771.865 370.536 771.921 362.531C772.005 353.969 780.085 351.662 790.101 351.662C795.319 351.69 800.846 352.607 804.437 353.525Z" fill="#2BAECC" stroke="#2BAECC"/>
<path d="M95.1079 228.632C103.357 232.051 112.11 233.774 121.116 233.774C139.127 233.774 156.073 226.825 168.81 214.205C181.547 201.585 188.561 184.795 188.561 166.95C188.561 149.104 181.547 132.314 168.81 119.694C156.073 107.074 139.127 100.125 121.116 100.125C103.104 100.125 86.1582 107.074 73.421 119.694C60.6838 132.314 53.6699 149.104 53.6699 166.95C53.6699 173.371 54.5957 179.708 56.3913 185.796C57.4854 189.521 61.4132 191.633 65.1726 190.549C68.9321 189.465 71.0643 185.574 69.9701 181.849C68.5393 177.04 67.8099 172.036 67.8099 166.95C67.8099 137.846 91.7132 114.163 121.088 114.163C150.462 114.163 174.365 137.846 174.365 166.95C174.365 196.053 150.462 219.736 121.088 219.736C113.962 219.736 107.06 218.374 100.551 215.678C96.9596 214.177 92.8074 215.873 91.2924 219.431C89.8054 223.044 91.4888 227.158 95.1079 228.632Z" fill="url(#paint0_linear_235_3864)"/>
<path d="M205.198 190.911C209.042 191.661 212.745 189.215 213.531 185.407C214.765 179.375 215.382 173.148 215.382 166.949C215.382 154.357 212.886 142.099 207.976 130.591C203.234 119.472 196.445 109.493 187.776 100.903C179.135 92.3417 169.035 85.587 157.812 80.8893C146.197 76.0247 133.853 73.5508 121.116 73.5508C108.379 73.5508 96.0336 76.0247 84.4186 80.8893C73.1964 85.587 63.1245 92.3139 54.4553 100.903C45.8142 109.465 38.9967 119.472 34.2553 130.591C29.3456 142.099 26.8486 154.33 26.8486 166.949C26.8486 179.569 29.3175 191.8 34.2272 203.336C38.9686 214.455 45.7581 224.434 54.4272 233.023C63.0683 241.585 73.1683 248.34 84.3906 253.037C96.0056 257.902 108.351 260.376 121.088 260.376C139.801 260.376 157.869 254.955 173.355 244.698C176.61 242.558 177.479 238.194 175.319 234.969C173.159 231.745 168.754 230.883 165.5 233.023C152.342 241.724 136.967 246.338 121.06 246.338C76.8717 246.338 40.9325 210.73 40.9325 166.949C40.9325 123.169 76.8717 87.5606 121.06 87.5606C165.247 87.5606 201.186 123.169 201.186 166.949C201.186 172.231 200.653 177.512 199.615 182.655C198.886 186.463 201.355 190.16 205.198 190.911Z" fill="url(#paint1_linear_235_3864)"/>
<path d="M232.665 120.278C226.577 105.991 217.823 93.1483 206.713 82.1406C195.603 71.1329 182.642 62.4879 168.221 56.4281C153.296 50.1738 137.416 47.0049 121.088 47.0049C103.273 47.0049 86.1306 50.7575 70.0828 58.1238C66.5478 59.7638 65.0047 63.9334 66.66 67.4358C68.3153 70.9383 72.5236 72.4671 76.0586 70.8271C90.1986 64.2947 105.349 61.0147 121.088 61.0147C180.061 61.0147 228.036 108.548 228.036 166.978C228.036 225.407 180.061 272.941 121.088 272.941C62.115 272.941 14.14 225.407 14.14 166.978C14.14 144.795 20.9856 123.558 33.9472 105.546C36.2197 102.405 35.4622 98.0128 32.2919 95.7612C29.1217 93.5096 24.6889 94.2602 22.4164 97.4012C7.74333 117.804 0 141.849 0 166.978C0 183.183 3.19833 198.889 9.51083 213.677C15.5989 227.965 24.3522 240.807 35.4622 251.815C46.5722 262.822 59.5339 271.467 73.9545 277.527C88.88 283.782 104.759 286.95 121.088 286.95C137.444 286.95 153.296 283.782 168.221 277.527C182.642 271.495 195.603 262.822 206.713 251.815C217.823 240.807 226.549 227.965 232.665 213.677C238.977 198.889 242.176 183.156 242.176 166.978C242.176 150.8 238.977 135.066 232.665 120.278Z" fill="url(#paint2_linear_235_3864)"/>
</g>
<defs>
<linearGradient id="paint0_linear_235_3864" x1="72.24" y1="100.189" x2="187.451" y2="250.569" gradientUnits="userSpaceOnUse">
<stop stop-color="#2FBEDF"/>
<stop offset="1" stop-color="#215994"/>
</linearGradient>
<linearGradient id="paint1_linear_235_3864" x1="52.8036" y1="73.6402" x2="213.861" y2="283.829" gradientUnits="userSpaceOnUse">
<stop stop-color="#2FBEDF"/>
<stop offset="1" stop-color="#215994"/>
</linearGradient>
<linearGradient id="paint2_linear_235_3864" x1="33.3398" y1="47.1197" x2="240.183" y2="317.102" gradientUnits="userSpaceOnUse">
<stop stop-color="#2FBEDF"/>
<stop offset="1" stop-color="#215994"/>
</linearGradient>
<clipPath id="clip0_235_3864">
<rect width="808" height="395" fill="white"/>
</clipPath>
</defs>
</svg>
